<svg width="191" height="148" viewBox="0 0 191 148" fill="none" xmlns="http://www.w3.org/2000/svg">
<ellipse cx="127" cy="32" rx="43" ry="32" fill="#03FFF0"/>
<path d="M97 80.5C97 90.4276 96.1403 100.233 94.4821 109.217C92.824 118.202 90.4082 126.144 87.407 132.478C84.4057 138.811 80.893 143.381 77.119 145.861C73.345 148.34 69.4028 148.669 65.5732 146.823C61.7437 144.977 58.1211 141.003 54.9637 135.183C51.8063 129.362 49.1918 121.839 47.3065 113.151C45.4212 104.462 44.3116 94.8205 44.0567 84.9141C43.8018 75.0078 44.408 65.0802 45.8319 55.8389L70.5 80.5H97Z" fill="#EB00FF"/>
<ellipse cx="51.5" cy="52.5" rx="51.5" ry="39.5" fill="#804BF0"/>
<ellipse cx="144" cy="70" rx="47" ry="30" fill="#FF007A"/>
</svg>
