<svg width="310" height="248" viewBox="0 0 310 248" fill="none" xmlns="http://www.w3.org/2000/svg">
<g filter="url(#filter0_f_10_11)">
<ellipse cx="180" cy="83" rx="43" ry="32" fill="#03FFF0"/>
</g>
<g filter="url(#filter1_f_10_11)">
<path d="M150 131.5C150 141.428 149.14 151.233 147.482 160.217C145.824 169.202 143.408 177.144 140.407 183.478C137.406 189.811 133.893 194.381 130.119 196.861C126.345 199.34 122.403 199.669 118.573 197.823C114.744 195.977 111.121 192.003 107.964 186.183C104.806 180.362 102.192 172.839 100.306 164.151C98.4212 155.462 97.3116 145.82 97.0567 135.914C96.8018 126.008 97.408 116.08 98.8319 106.839L123.5 131.5H150Z" fill="#EB00FF"/>
</g>
<g filter="url(#filter2_f_10_11)">
<ellipse cx="104.5" cy="103.5" rx="51.5" ry="39.5" fill="#804BF0"/>
</g>
<g filter="url(#filter3_f_10_11)">
<ellipse cx="197" cy="121" rx="47" ry="30" fill="#FF007A"/>
</g>
<defs>
<filter id="filter0_f_10_11" x="86" y="0" width="188" height="166" filterUnits="userSpaceOnUse" color-interpolation-filters="sRGB">
<feFlood flood-opacity="0" result="BackgroundImageFix"/>
<feBlend mode="normal" in="SourceGraphic" in2="BackgroundImageFix" result="shape"/>
<feGaussianBlur stdDeviation="25.5" result="effect1_foregroundBlur_10_11"/>
</filter>
<filter id="filter1_f_10_11" x="48" y="57.8389" width="151" height="190.161" filterUnits="userSpaceOnUse" color-interpolation-filters="sRGB">
<feFlood flood-opacity="0" result="BackgroundImageFix"/>
<feBlend mode="normal" in="SourceGraphic" in2="BackgroundImageFix" result="shape"/>
<feGaussianBlur stdDeviation="24.5" result="effect1_foregroundBlur_10_11"/>
</filter>
<filter id="filter2_f_10_11" x="0" y="11" width="209" height="185" filterUnits="userSpaceOnUse" color-interpolation-filters="sRGB">
<feFlood flood-opacity="0" result="BackgroundImageFix"/>
<feBlend mode="normal" in="SourceGraphic" in2="BackgroundImageFix" result="shape"/>
<feGaussianBlur stdDeviation="26.5" result="effect1_foregroundBlur_10_11"/>
</filter>
<filter id="filter3_f_10_11" x="84" y="25" width="226" height="192" filterUnits="userSpaceOnUse" color-interpolation-filters="sRGB">
<feFlood flood-opacity="0" result="BackgroundImageFix"/>
<feBlend mode="normal" in="SourceGraphic" in2="BackgroundImageFix" result="shape"/>
<feGaussianBlur stdDeviation="33" result="effect1_foregroundBlur_10_11"/>
</filter>
</defs>
</svg>
